<svg width="134" height="167" viewBox="0 0 134 167" fill="none" xmlns="http://www.w3.org/2000/svg">
<path d="M2.45217e-09 131.728C2.45217e-09 151 12.5125 166.625 27.9448 166.625H96.4909L134 101.639L96.4909 36.6537H18.0231C15.6563 36.6537 13.3126 36.1874 11.1259 35.2813C8.93922 34.3753 6.95236 33.0473 5.27876 31.3732C3.60515 29.6991 2.27758 27.7116 1.37185 25.5243C0.466119 23.3369 -3.90393e-05 20.9926 2.45217e-09 18.625V131.728Z" fill="#4B17E6"/>
<path d="M2.46389e-09 18.7939C-3.92257e-05 21.1799 0.468345 23.5425 1.3784 25.7469C2.28846 27.9513 3.62237 29.9542 5.30396 31.6414C6.98556 33.3286 8.98191 34.6669 11.179 35.58C13.3762 36.493 15.731 36.963 18.1092 36.963H23.1701V0.625H18.1092C15.7311 0.624969 13.3762 1.0949 11.1791 2.00796C8.98195 2.92102 6.98559 4.25932 5.30399 5.94647C3.62239 7.63361 2.28849 9.63655 1.37843 11.8409C0.46837 14.0453 -3.08659e-05 16.4079 2.46389e-09 18.7939Z" fill="#2A01A3"/>
</svg>
